<?xml version="1.0" standalone="no"?><!DOCTYPE svg PUBLIC "-//W3C//DTD SVG 1.1//EN" "http://www.w3.org/Graphics/SVG/1.1/DTD/svg11.dtd"><svg t="1602167909661" class="icon" viewBox="0 0 1024 1024" version="1.1" xmlns="http://www.w3.org/2000/svg" p-id="4697" width="32" height="32" xmlns:xlink="http://www.w3.org/1999/xlink"><defs><style type="text/css"></style></defs><path d="M49.664 1012.224c-9.216 0-18.432-3.584-25.6-10.752-13.824-13.824-13.824-36.864 0-50.688L952.32 23.04c13.824-13.824 36.864-13.824 50.688 0s13.824 36.864 0 50.688L74.752 1001.984c-6.656 6.656-15.872 10.24-25.088 10.24z" fill="#d81e06" p-id="4698"></path><path d="M977.92 1012.224c-9.216 0-18.432-3.584-25.6-10.752L24.064 73.728C10.24 59.392 10.24 36.864 24.064 23.04s36.864-13.824 50.688 0L1003.52 951.296c13.824 13.824 13.824 36.864 0 50.688-7.168 6.656-16.384 10.24-25.6 10.24z" fill="#d81e06" p-id="4699"></path></svg>